# Object Export From Tinkercad Server 2015

mtllib obj.mtl

o obj_0
v 18.714 		-17.488 		19.8447
v 18.714 		-17.488 		22.6451
v 18.714 		-17.488 		23.6354
v 18.916 		-17.315 		23.1397
v 11.318 		-18.397 		12.8362
v 10.983 		-19.486 		12.9479
v 13.758 		-23.479 		22.6083
v 13.012 		-22.955 		22.4966
v 18.714 		-17.488 		20.835
v 12.579 		-23.43 		22.2916
v 18.916 		-17.315 		20.3404
v 13.18 		-21.763 		13.2841
v 12.88 		-21.15 		13.1724
v 13.457 		-24.047 		22.4033
v 13.332 		-24.282 		21.9076
v 12.773 		-19.798 		12.9479
v 12.741 		-20.481 		13.0596
v 14.46 		-24.425 		22.515
v 14.398 		-24.684 		22.0204
v 12.628 		-21.236 		13.667
v 12.732 		-19.035 		18.9315
v 13.332 		-18.562 		18.3242
v 13.124 		-18.396 		18.8187
v 12.476 		-20.502 		13.5553
v 13.663 		-17.874 		18.707
v 12.02 		-21.444 		13.8719
v 12.623 		-17.994 		19.0237
v 11.835 		-20.552 		13.7602
v 11.194 		-20.603 		13.5553
v 10.929 		-20.624 		13.0596
v 15.076 		-17.567 		20.7883
v 15.039 		-17.304 		21.2829
v 11.411 		-21.652 		13.667
v 11.159 		-21.739 		13.1724
v 14.948 		-16.668 		21.4879
v 14.858 		-16.032 		21.2829
v 14.82 		-15.768 		20.7883
v 12.623 		-17.994 		12.0238
v 12.511 		-19.752 		12.4533
v 12.732 		-19.035 		12.3405
v 15.859 		-16.653 		19.976
v 14.948 		-16.668 		20.0877
v 13.663 		-17.874 		12.1171
v 15.039 		-17.304 		20.2927
v 13.124 		-18.396 		12.2288
v 16.518 		-17.467 		20.0693
v 15.789 		-17.292 		20.181
v 13.332 		-18.562 		12.7234
v 14.417 		-17.748 		12.5
v 13.823 		-18.087 		12.6117
v 15.93 		-16.015 		20.181
v 12.732 		-19.035 		10.5303
v 12.511 		-19.752 		10.6431
v 14.858 		-16.032 		20.2927
v 12.623 		-17.994 		10.6236
v 12.146 		-18.771 		12.1355
v 11.56 		-18.507 		12.3405
v 14.069 		-16.908 		22.9998
v 13.823 		-16.315 		23.2048
v 11.878 		-19.642 		12.2483
v 14.315 		-17.502 		23.2048
v 13.721 		-16.069 		23.7004
v 11.245 		-19.532 		12.4533
v 18.714 		-17.488 		17.0454
v 18.714 		-17.488 		18.0346
v 18.916 		-17.315 		17.54
v 12.146 		-18.771 		10.7353
v 11.878 		-19.642 		10.8481
v 11.56 		-18.507 		10.5303
v 18.714 		-17.488 		15.2353
v 11.245 		-19.532 		10.6431
v 19.02 		-19.528 		23.6158
v 18.725 		-18.666 		23.7286
v 12.628 		-21.236 		12.6767
v 19.65 		-19.398 		23.4109
v 19.911 		-19.344 		22.9163
v 19.303 		-18.384 		23.5237
v 19.542 		-18.267 		23.028
v 12.628 		-21.236 		10.8666
v 19.02 		-19.528 		22.2156
v 19.65 		-19.398 		22.4206
v 11.835 		-20.552 		12.36
v 11.194 		-20.603 		12.565
v 18.725 		-18.666 		22.3284
v 12.02 		-21.444 		12.4718
v 12.623 		-17.994 		17.6235
v 12.511 		-19.752 		18.053
v 19.303 		-18.384 		22.5334
v 12.732 		-19.035 		17.9413
v 18.935 		-21.334 		23.3924
v 13.663 		-17.874 		17.7168
v 19.092 		-20.437 		23.5041
v 13.124 		-18.396 		17.8296
v 19.549 		-21.523 		23.1874
v 19.734 		-20.467 		23.2991
v 20 		-20.479 		22.8046
v 14.417 		-17.748 		18.0997
v 13.823 		-18.087 		18.2125
v 18.935 		-21.334 		21.9922
v 19.549 		-21.523 		22.1972
v 19.092 		-20.437 		22.1039
v 19.804 		-21.601 		22.6918
v 12.146 		-18.771 		19.1365
v 11.878 		-19.642 		19.2482
v 19.734 		-20.467 		22.3089
v 11.56 		-18.507 		18.9315
v 11.318 		-18.397 		18.4359
v 11.245 		-19.532 		19.0432
v 19.02 		-19.528 		20.8165
v 10.983 		-19.486 		18.5476
v 18.725 		-18.666 		20.9282
v 19.65 		-19.398 		20.6115
v 19.303 		-18.384 		20.7233
v 12.146 		-18.771 		17.7363
v 11.56 		-18.507 		17.9413
v 19.02 		-19.528 		19.4163
v 19.65 		-19.398 		19.6213
v 11.878 		-19.642 		17.848
v 18.725 		-18.666 		19.5281
v 11.245 		-19.532 		18.053
v 19.911 		-19.344 		20.1159
v 12.42 		-22.262 		22.3838
v 11.883 		-22.615 		22.1788
v 11.661 		-22.761 		21.6842
v 12.628 		-21.236 		18.2775
v 12.4 		-23.627 		21.7959
v 13.012 		-22.955 		21.0964
v 17.181 		-17.818 		19.9575
v 13.758 		-23.479 		21.2081
v 18.225 		-17.905 		19.6398
v 17.736 		-18.322 		19.8447
v 14.059 		-22.911 		21.4131
v 13.445 		-22.48 		21.3013
v 17.028 		-18.036 		20.4521
v 17.534 		-18.495 		20.3404
v 12.958 		-21.909 		21.1896
v 18.391 		-19.659 		19.6213
v 18.148 		-18.949 		19.733
v 17.909 		-19.066 		20.2276
v 18.13 		-19.713 		20.1159
v 12.579 		-23.43 		21.3013
v 16.424 		-17.716 		20.5638
v 18.917 		-17.315 		11.9403
v 18.714 		-17.488 		11.4447
v 18.321 		-21.145 		19.3968
v 18.45 		-20.406 		19.5096
v 19.02 		-19.528 		13.8156
v 19.65 		-19.398 		14.0205
v 18.725 		-18.666 		13.9283
v 18.184 		-20.394 		20.0042
v 17.785 		-21.69 		19.7797
v 18.066 		-21.067 		19.8925
v 19.911 		-19.344 		14.5162
v 19.303 		-18.384 		14.1333
v 18.45 		-20.406 		20.4988
v 19.542 		-18.267 		14.6279
v 18.321 		-21.145 		20.387
v 19.549 		-21.523 		14.7873
v 19.804 		-21.601 		14.2917
v 18.012 		-21.829 		23.0746
v 19.734 		-20.467 		13.9088
v 19.734 		-20.467 		14.899
v 16.942 		-22.865 		22.8512
v 18.45 		-20.407 		13.9088
v 18.321 		-21.145 		13.7971
v 20 		-20.479 		14.4034
v 18.184 		-20.394 		14.4034
v 17.785 		-21.69 		14.18
v 18.066 		-21.067 		14.2917
v 18.935 		-21.334 		13.5921
v 19.549 		-21.523 		13.7971
v 18.45 		-20.407 		14.899
v 19.092 		-20.437 		13.7038
v 17.542 		-22.414 		22.9629
v 18.321 		-21.145 		14.7873
v 13.277 		-17.36 		21.7124
v 12.121 		-17.593 		21.6191
v 14.315 		-17.502 		21.3946
v 17.736 		-18.322 		12.4349
v 17.181 		-17.818 		12.5466
v 19.303 		-18.384 		19.733
v 13.445 		-22.48 		19.4912
v 14.059 		-22.911 		19.6029
v 19.542 		-18.267 		20.2276
v 13.758 		-23.479 		19.8079
v 13.012 		-22.955 		19.6962
v 18.935 		-21.334 		20.592
v 19.092 		-20.437 		20.7037
v 19.549 		-21.523 		19.3968
v 19.549 		-21.523 		20.387
v 19.804 		-21.601 		19.8925
v 12.579 		-23.43 		19.4912
v 13.457 		-24.047 		21.4131
v 19.734 		-20.467 		19.5096
v 14.46 		-24.425 		21.5248
v 19.734 		-20.467 		20.4988
v 13.457 		-24.047 		19.6029
v 20 		-20.479 		20.0042
v 14.46 		-24.425 		19.7146
v 12.42 		-22.262 		20.9846
v 11.883 		-22.615 		21.1896
v 19.108 		-22.5 		22.0855
v 19.108 		-22.5 		23.0746
v 19.335 		-22.639 		22.5801
v 12.42 		-22.262 		19.5844
v 14.069 		-16.908 		21.5996
v 17.736 		-18.322 		18.0346
v 17.181 		-17.818 		18.1474
v 13.823 		-16.315 		21.3946
v 13.721 		-16.069 		20.9
v 18.225 		-17.905 		18.2396
v 17.028 		-18.036 		17.6517
v 12.891 		-16.846 		20.5172
v 17.534 		-18.495 		17.54
v 12.891 		-16.846 		21.5074
v 12.732 		-16.634 		21.0118
v 18.13 		-19.713 		17.3155
v 17.909 		-19.066 		17.4283
v 13.18 		-21.763 		18.8838
v 18.148 		-18.949 		17.9229
v 12.88 		-21.15 		18.7721
v 18.391 		-19.659 		17.8112
v 12.773 		-19.798 		18.5476
v 12.741 		-20.481 		18.6604
v 16.424 		-17.716 		17.7645
v 12.628 		-21.236 		19.2667
v 18.184 		-20.394 		17.2038
v 18.225 		-17.905 		12.6399
v 12.476 		-20.502 		19.155
v 17.028 		-18.036 		12.052
v 11.835 		-20.552 		19.3599
v 17.534 		-18.495 		11.9403
v 11.194 		-20.603 		19.155
v 10.929 		-20.624 		18.6604
v 18.13 		-19.713 		11.7158
v 17.909 		-19.066 		11.8275
v 14.069 		-16.908 		20.2005
v 13.823 		-16.315 		20.4055
v 13.277 		-17.36 		20.3122
v 18.148 		-18.949 		12.3232
v 18.391 		-19.659 		12.2104
v 14.315 		-17.502 		20.4055
v 18.225 		-17.905 		11.2397
v 17.181 		-17.818 		11.5564
v 12.121 		-17.593 		20.6289
v 17.736 		-18.322 		11.4447
v 11.913 		-17.426 		21.1246
v 18.391 		-19.659 		11.2212
v 18.148 		-18.949 		11.3329
v 17.551 		-17.292 		18.3524
v 16.746 		-16.866 		18.4641
v 17.921 		-16.766 		18.1474
v 18.074 		-16.549 		17.6517
v 16.424 		-17.716 		12.1637
v 18.321 		-21.145 		10.9967
v 18.45 		-20.407 		11.1084
v 16.973 		-16.265 		17.2689
v 18.184 		-20.394 		11.6041
v 18.45 		-20.407 		17.6994
v 12.476 		-20.502 		12.565
v 18.321 		-21.145 		17.5866
v 11.411 		-21.652 		12.6767
v 18.225 		-17.905 		16.8405
v 17.181 		-17.818 		17.1572
v 12.476 		-20.502 		10.7549
v 17.736 		-18.322 		17.0454
v 12.02 		-21.444 		11.0716
v 18.391 		-19.659 		16.8209
v 11.835 		-20.552 		10.9598
v 18.148 		-18.949 		16.9326
v 11.194 		-20.603 		10.7549
v 11.411 		-21.652 		10.8666
v 12.623 		-17.994 		9.2234
v 17.181 		-17.818 		15.347
v 13.663 		-17.874 		9.3167
v 19.02 		-19.528 		12.4154
v 18.725 		-18.666 		12.5282
v 17.736 		-18.322 		15.2353
v 19.65 		-19.398 		12.2104
v 19.911 		-19.344 		11.7158
v 19.108 		-22.5 		20.2753
v 19.303 		-18.384 		12.3232
v 19.542 		-18.267 		11.8275
v 19.335 		-22.639 		19.7797
v 19.02 		-19.528 		11.0162
v 19.65 		-19.398 		11.2212
v 19.02 		-19.528 		18.0161
v 18.725 		-18.666 		18.1279
v 18.725 		-18.666 		11.128
v 19.65 		-19.398 		17.8112
v 19.911 		-19.344 		17.3155
v 19.303 		-18.384 		17.9229
v 19.303 		-18.384 		11.3329
v 19.542 		-18.267 		17.4283
v 18.935 		-21.334 		12.1919
v 19.092 		-20.437 		12.3036
v 18.935 		-21.334 		19.1918
v 19.549 		-21.523 		11.9869
v 19.092 		-20.437 		19.3035
v 19.734 		-20.467 		12.0987
v 18.935 		-21.334 		10.7917
v 19.549 		-21.523 		10.9967
v 19.092 		-20.437 		10.9034
v 18.935 		-21.334 		17.7916
v 19.092 		-20.437 		17.9044
v 19.549 		-21.523 		17.5866
v 19.804 		-21.601 		11.4924
v 19.734 		-20.467 		17.6994
v 20 		-20.479 		17.2038
v 19.734 		-20.467 		11.1084
v 20 		-20.479 		11.6041
v 19.02 		-19.528 		16.6159
v 19.65 		-19.398 		16.8209
v 18.725 		-18.666 		16.7277
v 19.108 		-22.5 		13.6854
v 19.108 		-22.5 		14.6745
v 11.411 		-21.652 		19.2667
v 19.335 		-22.639 		14.18
v 11.159 		-21.739 		18.7721
v 19.108 		-22.5 		10.885
v 19.108 		-22.5 		11.8752
v 11.835 		-20.552 		17.9597
v 11.194 		-20.603 		18.1647
v 19.335 		-22.639 		11.3796
v 12.02 		-21.444 		18.0725
v 12.476 		-20.502 		18.1647
v 17.551 		-17.292 		14.1518
v 17.921 		-16.766 		14.3568
v 16.746 		-16.866 		14.2635
v 18.56 		-22.165 		23.2807
v 17.99 		-22.876 		23.1679
v 18.074 		-16.549 		14.8524
v 17.261 		-23.423 		23.0562
v 16.973 		-16.265 		14.4685
v 18.437 		-23.337 		22.9629
v 17.551 		-17.292 		12.7516
v 16.746 		-16.866 		12.8644
v 18.56 		-22.165 		21.8805
v 17.542 		-22.414 		21.9727
v 18.012 		-21.829 		22.0855
v 15.86 		-16.653 		14.3763
v 14.948 		-16.668 		14.488
v 15.039 		-17.304 		14.693
v 16.81 		-22.634 		22.3566
v 17.357 		-22.223 		22.4684
v 16.518 		-17.467 		14.4685
v 15.789 		-17.292 		14.5813
v 17.261 		-23.423 		21.656
v 17.99 		-22.876 		21.7677
v 15.93 		-16.015 		14.5813
v 16.942 		-22.865 		21.861
v 14.858 		-16.032 		14.693
v 18.437 		-23.337 		21.9727
v 18.622 		-23.528 		22.4684
v 15.789 		-17.292 		12.7711
v 15.039 		-17.304 		12.8828
v 16.973 		-16.265 		18.2591
v 17.067 		-16.016 		17.7645
v 14.948 		-16.668 		13.0878
v 15.86 		-16.653 		12.9761
v 16.658 		-24.648 		22.2438
v 17.579 		-23.981 		21.861
v 15.93 		-16.015 		12.7711
v 14.858 		-16.032 		12.8828
v 17.579 		-23.981 		22.8512
v 17.921 		-16.766 		12.5466
v 18.074 		-16.549 		12.052
v 15.789 		-17.292 		18.3708
v 15.039 		-17.304 		18.4825
v 16.973 		-16.265 		11.6692
v 11.411 		-21.652 		18.2775
v 16.973 		-16.265 		12.6594
v 17.067 		-16.016 		12.1637
v 12.732 		-19.035 		16.1311
v 12.511 		-19.752 		16.2428
v 12.623 		-17.994 		16.2244
v 17.551 		-17.292 		11.3514
v 17.921 		-16.766 		11.5564
v 13.124 		-18.396 		15.0292
v 16.746 		-16.866 		11.4642
v 13.332 		-18.562 		15.5238
v 14.417 		-17.748 		15.3003
v 13.823 		-18.087 		15.4121
v 15.93 		-16.015 		11.7809
v 13.124 		-18.396 		16.0194
v 15.959 		-15.75 		12.2754
v 13.663 		-17.874 		15.9066
v 16.518 		-17.467 		11.6692
v 15.789 		-17.292 		11.7809
v 12.732 		-19.035 		15.1409
v 12.511 		-19.752 		15.2526
v 15.76 		-17.557 		12.2754
v 12.975 		-19.145 		15.6355
v 16.518 		-17.467 		12.6594
v 12.146 		-18.771 		16.3361
v 11.878 		-19.642 		16.4478
v 14.948 		-16.668 		11.6876
v 14.858 		-16.032 		11.8926
v 11.56 		-18.507 		16.1311
v 11.245 		-19.532 		16.2428
v 18.391 		-19.659 		15.0108
v 18.148 		-18.949 		15.1225
v 11.56 		-18.507 		15.1409
v 18.225 		-17.905 		15.4403
v 11.878 		-19.642 		15.0476
v 14.948 		-16.668 		18.6886
v 16.424 		-17.716 		14.9641
v 15.86 		-16.653 		18.5758
v 18.321 		-21.145 		16.5975
v 18.45 		-20.407 		16.7092
v 15.93 		-16.015 		18.3708
v 14.858 		-16.032 		18.4825
v 17.785 		-21.69 		16.9804
v 18.066 		-21.067 		17.0921
v 15.86 		-16.653 		17.1756
v 15.93 		-16.015 		17.3806
v 15.959 		-15.75 		17.8762
v 17.261 		-23.423 		18.8556
v 17.99 		-22.876 		18.9684
v 18.56 		-22.165 		19.0801
v 17.785 		-21.69 		11.3796
v 18.066 		-21.067 		11.4924
v 18.012 		-21.829 		19.2851
v 16.518 		-17.467 		17.2689
v 15.789 		-17.292 		17.3806
v 18.45 		-20.407 		12.0987
v 17.542 		-22.414 		19.1734
v 15.76 		-17.557 		17.8762
v 15.039 		-17.304 		11.8926
v 18.321 		-21.145 		11.9869
v 15.076 		-17.567 		12.3882
v 16.942 		-22.865 		19.0606
v 13.124 		-18.396 		9.4284
v 14.82 		-15.768 		12.3882
v 13.332 		-18.562 		9.9241
v 19.303 		-18.384 		16.9326
v 19.02 		-19.528 		15.2157
v 18.725 		-18.666 		15.3275
v 19.65 		-19.398 		15.0108
v 19.303 		-18.384 		15.1225
v 18.935 		-21.334 		16.3925
v 19.549 		-21.523 		16.5975
v 19.092 		-20.437 		16.5042
v 19.804 		-21.601 		17.0921
v 19.734 		-20.467 		16.7092
v 18.935 		-21.334 		14.9923
v 19.092 		-20.437 		15.104
v 19.108 		-22.5 		16.4847
v 19.108 		-22.5 		19.2851
v 19.108 		-22.5 		17.4749
v 19.335 		-22.639 		16.9804
v 16.518 		-17.467 		18.2591
v 14.948 		-16.668 		17.2884
v 14.858 		-16.032 		17.4934
v 15.039 		-17.304 		17.4934
v 15.076 		-17.567 		17.9879
v 14.82 		-15.768 		17.9879
v 17.551 		-17.292 		16.9522
v 17.921 		-16.766 		17.1572
v 16.746 		-16.866 		17.0639
v 17.551 		-17.292 		15.552
v 16.746 		-16.866 		15.6637
v 17.551 		-17.292 		23.9521
v 16.746 		-16.866 		24.0638
v 17.921 		-16.766 		15.347
v 17.711 		-24.212 		22.3566
v 15.86 		-16.653 		11.5759
v 14.069 		-16.908 		14.5997
v 13.823 		-16.315 		14.8047
v 16.249 		-23.152 		22.7395
v 13.277 		-17.36 		14.7114
v 16.419 		-23.772 		22.9445
v 14.315 		-17.502 		14.8047
v 14.417 		-17.748 		9.6996
v 13.823 		-18.087 		9.8124
v 12.891 		-16.846 		14.9175
v 13.124 		-18.396 		10.4186
v 13.663 		-17.874 		10.3069
v 14.315 		-17.502 		12.9945
v 13.277 		-17.36 		13.3123
v 15.506 		-23.258 		21.6376
v 14.069 		-16.908 		13.1995
v 16.249 		-23.152 		21.7493
v 16.81 		-22.634 		13.9555
v 17.357 		-22.223 		14.0683
v 13.823 		-16.315 		12.9945
v 18.012 		-21.829 		14.6745
v 12.891 		-16.846 		13.1073
v 12.121 		-17.593 		13.219
v 17.542 		-22.414 		14.5628
v 14.069 		-16.908 		11.8004
v 13.823 		-16.315 		12.0054
v 13.277 		-17.36 		11.9121
v 16.179 		-22.895 		22.2438
v 14.315 		-17.502 		12.0054
v 15.502 		-22.992 		22.1321
v 13.721 		-16.069 		12.5
v 14.823 		-22.917 		22.0204
v 12.891 		-16.846 		12.1171
v 15.506 		-23.258 		22.6267
v 12.732 		-16.634 		12.6117
v 14.76 		-23.176 		22.515
v 11.318 		-18.397 		15.6355
v 14.61 		-23.801 		22.72
v 15.526 		-24.543 		21.6376
v 15.516 		-23.9 		22.8317
v 11.245 		-19.532 		15.2526
v 15.526 		-24.543 		22.6267
v 10.983 		-19.486 		15.7483
v 15.53 		-24.809 		22.1321
v 18.437 		-23.337 		19.1734
v 12.628 		-21.236 		15.4771
v 18.012 		-21.829 		17.4749
v 13.18 		-21.763 		16.0845
v 16.942 		-22.865 		17.2515
v 17.542 		-22.414 		17.3632
v 12.88 		-21.15 		15.9717
v 18.56 		-22.165 		17.6799
v 12.773 		-19.798 		15.7483
v 12.741 		-20.481 		15.86
v 17.99 		-22.876 		17.5682
v 12.628 		-21.236 		16.4674
v 17.261 		-23.423 		17.4565
v 18.437 		-23.337 		17.3632
v 17.579 		-23.981 		19.0606
v 12.476 		-20.502 		16.3546
v 17.579 		-23.981 		17.2515
v 14.61 		-23.801 		18.5205
v 12.02 		-21.444 		16.6723
v 16.419 		-23.772 		18.7439
v 11.835 		-20.552 		16.5595
v 16.249 		-23.152 		18.9489
v 11.194 		-20.603 		16.3546
v 15.506 		-23.258 		18.8372
v 11.411 		-21.652 		16.4674
v 16.973 		-16.265 		23.8588
v 11.835 		-20.552 		15.1604
v 11.194 		-20.603 		15.3654
v 15.039 		-17.304 		24.0833
v 16.518 		-17.467 		23.8588
v 15.789 		-17.292 		23.9716
v 12.02 		-21.444 		15.2721
v 14.948 		-16.668 		24.2883
v 14.76 		-23.176 		18.7255
v 15.859 		-16.653 		24.1766
v 15.502 		-22.992 		19.3317
v 14.823 		-22.917 		19.22
v 15.93 		-16.015 		23.9716
v 14.858 		-16.032 		24.0833
v 16.419 		-23.772 		17.3437
v 14.315 		-17.502 		24.195
v 14.069 		-16.908 		24.4
v 13.823 		-16.315 		24.195
v 15.516 		-23.9 		18.6322
v 15.526 		-24.543 		18.8372
v 13.277 		-17.36 		10.5119
v 12.121 		-17.593 		12.2288
v 11.913 		-17.426 		12.7234
v 15.53 		-24.809 		19.3317
v 13.823 		-16.315 		9.205
v 14.069 		-16.908 		9
v 14.315 		-17.502 		9.205
v 16.588 		-24.391 		18.9489
v 14.315 		-17.502 		10.1952
v 14.069 		-16.908 		10.4002
v 15.516 		-23.9 		17.232
v 13.823 		-16.315 		10.1952
v 18.56 		-22.165 		16.2797
v 13.7969 		-16.252 		10.0683
v 17.542 		-22.414 		16.373
v 18.012 		-21.829 		16.4847
v 13.7969 		-16.252 		9.3316
v 13.7969 		-16.252 		9.6996
v 13.277 		-17.36 		9.1117
v 12.891 		-16.846 		9.3167
v 16.81 		-22.634 		16.7559
v 17.357 		-22.223 		16.8676
v 12.891 		-16.846 		10.3069
v 12.732 		-16.634 		9.8124
v 13.4007 		-16.252 		9.7361
v 13.5255 		-16.252 		9.6094
v 17.99 		-22.876 		16.168
v 16.942 		-22.865 		16.2613
v 18.437 		-23.337 		16.373
v 18.622 		-23.528 		16.8676
v 17.261 		-23.423 		16.0563
v 16.658 		-24.648 		16.6441
v 12.121 		-17.593 		9.4284
v 17.579 		-23.981 		16.2613
v 12.121 		-17.593 		10.4186
v 11.913 		-17.426 		9.9241
v 17.711 		-24.212 		16.7559
v 12.476 		-20.502 		15.3654
v 10.929 		-20.624 		15.86
v 12.732 		-19.035 		9.5412
v 12.511 		-19.752 		9.6529
v 11.411 		-21.652 		15.4771
v 12.975 		-19.145 		10.0358
v 11.159 		-21.739 		15.9717
v 18.56 		-22.165 		14.8795
v 12.958 		-21.909 		18.3892
v 16.249 		-23.152 		16.1485
v 12.146 		-18.771 		9.3362
v 11.56 		-18.507 		9.5412
v 16.942 		-22.865 		14.4511
v 11.878 		-19.642 		9.4479
v 16.588 		-24.391 		21.7493
v 11.318 		-18.397 		10.0358
v 16.588 		-24.391 		22.7395
v 11.245 		-19.532 		9.6529
v 10.983 		-19.486 		10.1475
v 16.81 		-22.634 		19.5563
v 17.357 		-22.223 		19.668
v 12.628 		-21.236 		9.8763
v 18.012 		-21.829 		20.2753
v 13.18 		-21.763 		10.4837
v 17.542 		-22.414 		20.1625
v 12.88 		-21.15 		10.372
v 12.773 		-19.798 		10.1475
v 12.741 		-20.481 		10.2603
v 18.56 		-22.165 		20.4803
v 17.921 		-16.766 		22.7569
v 17.921 		-16.766 		23.7471
v 11.835 		-20.552 		9.5596
v 11.194 		-20.603 		9.7646
v 18.074 		-16.549 		23.2525
v 12.02 		-21.444 		9.6714
v 16.973 		-16.265 		22.8697
v 12.476 		-20.502 		9.7646
v 10.929 		-20.624 		10.2603
v 11.411 		-21.652 		9.8763
v 11.159 		-21.739 		10.372
v 13.445 		-22.48 		13.8904
v 14.059 		-22.911 		14.0032
v 13.758 		-23.479 		14.2082
v 17.99 		-22.876 		14.7678
v 13.012 		-22.955 		14.0965
v 17.261 		-23.423 		14.6561
v 16.973 		-16.265 		15.4587
v 17.067 		-16.016 		14.9641
v 17.067 		-16.016 		23.3642
v 15.76 		-17.557 		15.0758
v 16.518 		-17.467 		15.4587
v 15.789 		-17.292 		15.5704
v 15.86 		-16.653 		15.7765
v 18.437 		-23.337 		14.5628
v 18.622 		-23.528 		14.0683
v 15.93 		-16.015 		15.5704
v 15.959 		-15.75 		15.0758
v 15.076 		-17.567 		15.1875
v 15.039 		-17.304 		15.6832
v 17.261 		-23.423 		13.2559
v 14.948 		-16.668 		15.8882
v 17.99 		-22.876 		13.3676
v 18.56 		-22.165 		13.4804
v 14.858 		-16.032 		15.6832
v 14.82 		-15.768 		15.1875
v 18.012 		-21.829 		13.6854
v 17.542 		-22.414 		13.5726
v 14.315 		-17.502 		18.5953
v 13.277 		-17.36 		18.912
v 16.942 		-22.865 		13.4609
v 14.069 		-16.908 		18.8003
v 13.823 		-16.315 		18.5953
v 12.891 		-16.846 		18.707
v 18.437 		-23.337 		13.5726
v 14.069 		-16.908 		17.4001
v 13.823 		-16.315 		17.6051
v 16.658 		-24.648 		13.8437
v 17.579 		-23.981 		13.4609
v 13.277 		-17.36 		17.5118
v 17.579 		-23.981 		14.4511
v 17.711 		-24.212 		13.9555
v 14.315 		-17.502 		17.6051
v 13.721 		-16.069 		18.0997
v 12.891 		-16.846 		17.7168
v 12.732 		-16.634 		18.2125
v 16.942 		-22.865 		20.0508
v 12.121 		-17.593 		17.8296
v 12.121 		-17.593 		18.8187
v 17.99 		-22.876 		20.3686
v 11.913 		-17.426 		18.3242
v 17.261 		-23.423 		20.2558
v 18.437 		-23.337 		20.1625
v 13.277 		-17.36 		16.1116
v 18.622 		-23.528 		19.668
v 14.315 		-17.502 		15.7949
v 16.658 		-24.648 		19.4445
v 14.069 		-16.908 		15.9999
v 17.579 		-23.981 		20.0508
v 13.823 		-16.315 		15.7949
v 17.711 		-24.212 		19.5563
v 13.721 		-16.069 		15.3003
v 12.891 		-16.846 		15.9066
v 12.732 		-16.634 		15.4121
v 14.61 		-23.801 		21.3198
v 16.419 		-23.772 		21.5443
v 14.76 		-23.176 		21.5248
v 12.121 		-17.593 		15.0292
v 12.121 		-17.593 		16.0194
v 11.913 		-17.426 		15.5238
v 16.179 		-22.895 		19.4445
v 16.249 		-23.152 		19.9391
v 18.225 		-17.905 		23.8404
v 17.551 		-17.292 		22.5519
v 17.736 		-18.322 		23.6354
v 17.181 		-17.818 		23.7471
v 16.746 		-16.866 		22.6647
v 17.181 		-17.818 		22.7569
v 15.859 		-16.653 		22.7764
v 16.518 		-17.467 		22.8697
v 17.028 		-18.036 		23.2525
v 15.789 		-17.292 		22.9814
v 17.534 		-18.495 		23.1397
v 15.76 		-17.557 		23.4759
v 16.179 		-22.895 		13.8437
v 18.13 		-19.713 		22.9163
v 17.909 		-19.066 		23.028
v 16.249 		-23.152 		14.3394
v 14.76 		-23.176 		14.1149
v 15.506 		-23.258 		14.2266
v 18.148 		-18.949 		23.5237
v 18.391 		-19.659 		23.4109
v 16.419 		-23.772 		14.5444
v 18.225 		-17.905 		22.4402
v 17.736 		-18.322 		22.6451
v 14.61 		-23.801 		14.3199
v 14.61 		-23.801 		12.9197
v 18.391 		-19.659 		22.4206
v 16.419 		-23.772 		13.1442
v 18.148 		-18.949 		22.5334
v 16.249 		-23.152 		13.3492
v 15.506 		-23.258 		13.2375
v 14.76 		-23.176 		13.1247
v 16.424 		-17.716 		23.3642
v 18.321 		-21.145 		22.1972
v 18.45 		-20.406 		22.3089
v 15.502 		-22.992 		13.732
v 18.184 		-20.394 		22.8046
v 14.823 		-22.917 		13.6203
v 17.785 		-21.69 		22.5801
v 18.066 		-21.067 		22.6918
v 15.516 		-23.9 		13.0314
v 15.526 		-24.543 		13.2375
v 18.45 		-20.406 		23.2991
v 18.225 		-17.905 		14.0401
v 18.321 		-21.145 		23.1874
v 17.181 		-17.818 		14.3568
v 15.93 		-16.015 		22.9814
v 15.959 		-15.75 		23.4759
v 17.181 		-17.818 		20.9467
v 14.948 		-16.668 		22.8881
v 14.858 		-16.032 		23.0931
v 17.736 		-18.322 		20.835
v 18.391 		-19.659 		20.6115
v 15.039 		-17.304 		23.0931
v 18.148 		-18.949 		20.7233
v 15.076 		-17.567 		23.5876
v 14.82 		-15.768 		23.5876
v 13.445 		-22.48 		18.501
v 14.183 		-22.676 		19.1083
v 13.624 		-22.283 		18.9966
v 12.958 		-21.909 		19.3795
v 13.012 		-22.955 		18.296
v 12.579 		-23.43 		18.501
v 13.758 		-23.479 		18.4077
v 14.059 		-22.911 		18.6127
v 13.457 		-24.047 		18.6127
v 13.332 		-24.282 		19.1083
v 14.46 		-24.425 		18.7255
v 14.398 		-24.684 		19.22
v 12.42 		-22.262 		18.1843
v 11.883 		-22.615 		18.3892
v 16.179 		-22.895 		16.6441
v 15.502 		-22.992 		16.5324
v 17.551 		-17.292 		21.1517
v 16.746 		-16.866 		21.2645
v 16.249 		-23.152 		17.1387
v 17.921 		-16.766 		20.9467
v 14.823 		-22.917 		16.4196
v 12.579 		-23.43 		13.8904
v 12.958 		-21.909 		12.7885
v 13.445 		-22.48 		12.9012
v 15.506 		-23.258 		17.027
v 14.76 		-23.176 		19.7146
v 15.506 		-23.258 		19.8274
v 14.76 		-23.176 		16.9153
v 16.419 		-23.772 		20.1441
v 14.61 		-23.801 		17.1203
v 14.61 		-23.801 		15.7201
v 16.419 		-23.772 		15.9435
v 14.183 		-22.676 		13.5075
v 15.506 		-23.258 		16.0368
v 13.624 		-22.283 		13.3958
v 14.76 		-23.176 		15.9251
v 15.516 		-23.9 		15.8318
v 15.526 		-24.543 		16.0368
v 16.973 		-16.265 		21.0595
v 17.067 		-16.016 		20.5638
v 17.551 		-17.292 		19.7526
v 17.921 		-16.766 		19.9575
v 15.526 		-24.543 		17.027
v 16.746 		-16.866 		19.8643
v 15.53 		-24.809 		16.5324
v 17.736 		-18.322 		14.245
v 12.958 		-21.909 		13.7787
v 17.028 		-18.036 		14.8524
v 17.534 		-18.495 		14.7396
v 16.588 		-24.391 		16.1485
v 18.391 		-19.659 		14.0205
v 18.148 		-18.949 		14.1333
v 16.588 		-24.391 		17.1387
v 17.909 		-19.066 		14.6279
v 18.13 		-19.713 		14.5162
v 12.975 		-19.145 		18.4359
v 12.511 		-19.752 		19.0432
v 14.61 		-23.801 		19.9196
v 15.516 		-23.9 		21.4326
v 15.516 		-23.9 		20.0324
v 15.526 		-24.543 		19.8274
v 12.579 		-23.43 		12.9012
v 13.758 		-23.479 		12.808
v 14.059 		-22.911 		13.013
v 13.457 		-24.047 		13.013
v 13.457 		-24.047 		14.0032
v 13.332 		-24.282 		13.5075
v 14.46 		-24.425 		13.1247
v 14.46 		-24.425 		14.1149
v 14.398 		-24.684 		13.6203
v 18.074 		-16.549 		20.4521
v 16.973 		-16.265 		20.0693
v 15.76 		-17.557 		20.6766
v 16.518 		-17.467 		21.0595
v 15.789 		-17.292 		21.1712
v 15.859 		-16.653 		21.3762
v 15.93 		-16.015 		21.1712
v 15.959 		-15.75 		20.6766
v 16.588 		-24.391 		19.9391
v 14.417 		-17.748 		23.7004
v 12.511 		-19.752 		21.8436
v 13.124 		-18.396 		21.6191
v 12.732 		-19.035 		21.7308
v 15.516 		-23.9 		14.4316
v 15.526 		-24.543 		14.2266
v 15.53 		-24.809 		13.732
v 16.588 		-24.391 		13.3492
v 16.588 		-24.391 		14.3394
v 18.012 		-21.829 		11.8752
v 16.942 		-22.865 		11.6507
v 17.542 		-22.414 		11.7624
v 18.56 		-22.165 		12.0802
v 17.99 		-22.876 		11.9674
v 17.261 		-23.423 		11.8557
v 18.437 		-23.337 		11.7624
v 18.56 		-22.165 		10.68
v 17.542 		-22.414 		10.7733
v 18.012 		-21.829 		10.885
v 16.81 		-22.634 		11.1562
v 17.357 		-22.223 		11.2679
v 17.99 		-22.876 		10.5683
v 16.942 		-22.865 		10.6605
v 18.437 		-23.337 		10.7733
v 18.622 		-23.528 		11.2679
v 16.658 		-24.648 		11.0434
v 17.579 		-23.981 		10.6605
v 17.579 		-23.981 		11.6507
v 17.711 		-24.212 		11.1562
v 16.419 		-23.772 		11.744
v 16.249 		-23.152 		10.5488
v 16.179 		-22.895 		11.0434
v 14.823 		-22.917 		10.8199
v 15.502 		-22.992 		10.9316
v 16.249 		-23.152 		11.539
v 12.623 		-17.994 		21.8241
v 12.146 		-18.771 		21.9358
v 11.878 		-19.642 		22.0486
v 11.56 		-18.507 		21.7308
v 11.245 		-19.532 		21.8436
v 13.18 		-21.763 		21.6842
v 12.628 		-21.236 		22.0671
v 12.476 		-20.502 		21.9553
v 12.02 		-21.444 		22.272
v 11.835 		-20.552 		22.1603
v 11.194 		-20.603 		21.9553
v 11.411 		-21.652 		22.0671
v 13.663 		-17.874 		20.5172
v 13.124 		-18.396 		20.6289
v 13.332 		-18.562 		21.1246
v 14.417 		-17.748 		20.9
v 13.823 		-18.087 		21.0118
v 13.663 		-17.874 		21.5074
v 12.732 		-19.035 		20.7406
v 12.511 		-19.752 		20.8534
v 12.975 		-19.145 		21.2363
v 12.623 		-17.994 		20.4239
v 18.225 		-17.905 		21.04
v 12.146 		-18.771 		20.5356
v 11.56 		-18.507 		20.7406
v 11.878 		-19.642 		20.6484
v 11.883 		-22.615 		19.3795
v 11.661 		-22.761 		18.8838
v 12.4 		-23.627 		18.9966
v 11.883 		-22.615 		12.7885
v 12.42 		-22.262 		13.9837
v 11.883 		-22.615 		13.7787
v 11.661 		-22.761 		13.2841
v 13.624 		-22.283 		16.1962
v 14.183 		-22.676 		16.3079
v 12.958 		-21.909 		16.5791
v 13.445 		-22.48 		16.6908
v 12.4 		-23.627 		13.3958
v 13.012 		-22.955 		12.6963
v 14.059 		-22.911 		16.8025
v 13.012 		-22.955 		16.8958
v 13.758 		-23.479 		17.0075
v 12.579 		-23.43 		16.6908
v 13.012 		-22.955 		15.4956
v 13.758 		-23.479 		15.6084
v 14.059 		-22.911 		15.8134
v 13.445 		-22.48 		15.7006
v 12.958 		-21.909 		15.5888
v 13.624 		-22.283 		10.5954
v 11.318 		-18.397 		21.2363
v 12.579 		-23.43 		15.7006
v 11.245 		-19.532 		20.8534
v 10.983 		-19.486 		21.348
v 13.457 		-24.047 		15.8134
v 13.457 		-24.047 		16.8025
v 13.332 		-24.282 		16.3079
v 14.46 		-24.425 		15.9251
v 12.628 		-21.236 		21.0768
v 14.46 		-24.425 		16.9153
v 14.398 		-24.684 		16.4196
v 12.88 		-21.15 		21.5725
v 12.773 		-19.798 		21.348
v 12.741 		-20.481 		21.4597
v 12.42 		-22.262 		15.3839
v 11.883 		-22.615 		15.5888
v 14.183 		-22.676 		10.7082
v 12.42 		-22.262 		16.7841
v 12.958 		-21.909 		10.9794
v 13.445 		-22.48 		11.0911
v 11.883 		-22.615 		16.5791
v 11.661 		-22.761 		16.0845
v 14.059 		-22.911 		11.2028
v 12.4 		-23.627 		16.1962
v 13.012 		-22.955 		11.2961
v 13.758 		-23.479 		11.4078
v 12.579 		-23.43 		11.0911
v 18.714 		-17.488 		14.245
v 18.916 		-17.315 		14.7396
v 18.714 		-17.488 		12.4349
v 13.457 		-24.047 		11.2028
v 13.332 		-24.282 		10.7082
v 14.46 		-24.425 		11.3145
v 11.835 		-20.552 		20.7601
v 11.194 		-20.603 		20.9651
v 14.398 		-24.684 		10.8199
v 15.506 		-23.258 		11.4273
v 12.42 		-22.262 		12.5835
v 14.76 		-23.176 		11.3145
v 12.42 		-22.262 		11.1844
v 11.883 		-22.615 		10.9794
v 14.61 		-23.801 		11.5195
v 15.516 		-23.9 		11.6323
v 12.4 		-23.627 		10.5954
v 15.526 		-24.543 		11.4273
v 13.012 		-22.955 		9.8959
v 15.53 		-24.809 		10.9316
v 13.758 		-23.479 		10.0076
v 14.059 		-22.911 		10.2126
v 16.588 		-24.391 		10.5488
v 16.588 		-24.391 		11.539
v 13.445 		-22.48 		10.1009
v 14.61 		-23.801 		10.1193
v 15.516 		-23.9 		10.2321
v 12.02 		-21.444 		20.8718
v 16.419 		-23.772 		10.3438
v 17.261 		-23.423 		10.4555
v 12.476 		-20.502 		20.9651
v 10.929 		-20.624 		21.4597
v 15.506 		-23.258 		10.4371
v 11.411 		-21.652 		21.0768
v 12.958 		-21.909 		9.9891
v 11.159 		-21.739 		21.5725
v 12.02 		-21.444 		19.4717
v 12.579 		-23.43 		10.1009
v 14.76 		-23.176 		10.3254
v 13.457 		-24.047 		10.2126
v 14.46 		-24.425 		10.3254
v 15.526 		-24.543 		10.4371
v 12.42 		-22.262 		9.7842
v 11.883 		-22.615 		9.9891
v 12.623 		-17.994 		14.8242
v 13.663 		-17.874 		14.9175
v 11.661 		-22.761 		10.4837
v 12.975 		-19.145 		12.8362
v 12.511 		-19.752 		13.4425
v 12.732 		-19.035 		13.3307
v 13.124 		-18.396 		13.219
v 13.624 		-22.283 		21.7959
v 14.183 		-22.676 		21.9076
v 13.663 		-17.874 		13.1073
v 12.958 		-21.909 		22.1788
v 12.623 		-17.994 		13.424
v 13.445 		-22.48 		22.2916
v 12.146 		-18.771 		14.9359
v 14.059 		-22.911 		22.4033
v 12.146 		-18.771 		13.5357
v 11.878 		-19.642 		13.6474
v 11.56 		-18.507 		13.3307
v 11.245 		-19.532 		13.4425
# 1012 vertices

g group_0_14332748

usemtl color_14332748
s 0

f 626 	623 	3
f 4 	626 	3
f 10 	14 	8
f 15 	14 	10
f 19 	14 	15
f 20 	806 	12
f 7 	14 	18
f 14 	19 	18
f 510 	18 	19
f 20 	12 	13
f 24 	28 	20
f 24 	20 	13
f 17 	24 	13
f 998 	17 	16
f 998 	24 	17
f 20 	28 	26
f 25 	23 	22
f 21 	23 	27
f 28 	33 	26
f 30 	29 	1012
f 6 	30 	1012
f 29 	33 	28
f 29 	34 	33
f 34 	29 	30
f 32 	835 	35
f 903 	906 	34
f 26 	33 	905
f 210 	209 	36
f 906 	905 	33
f 33 	34 	906
f 35 	36 	209
f 40 	39 	60
f 210 	36 	37
f 47 	42 	41
f 42 	47 	44
f 43 	45 	38
f 16 	39 	997
f 39 	40 	997
f 46 	47 	41
f 50 	45 	43
f 48 	40 	45
f 48 	45 	50
f 832 	44 	47
f 49 	50 	43
f 832 	31 	44
f 42 	51 	41
f 51 	42 	54
f 67 	53 	52
f 55 	67 	52
f 55 	69 	67
f 40 	60 	56
f 45 	56 	38
f 45 	40 	56
f 63 	5 	57
f 57 	60 	63
f 60 	57 	56
f 63 	6 	5
f 63 	60 	82
f 253 	65 	66
f 67 	68 	53
f 67 	71 	68
f 69 	71 	67
f 611 	69 	608
f 78 	75 	76
f 17 	13 	74
f 16 	260 	39
f 77 	73 	72
f 75 	77 	72
f 16 	17 	260
f 75 	78 	77
f 77 	3 	73
f 4 	3 	77
f 77 	78 	4
f 2 	4 	78
f 63 	82 	83
f 80 	729 	84
f 81 	84 	88
f 88 	76 	81
f 84 	81 	80
f 76 	88 	78
f 88 	2 	78
f 92 	75 	72
f 91 	93 	86
f 96 	95 	94
f 95 	92 	90
f 94 	95 	90
f 98 	93 	91
f 22 	93 	98
f 92 	95 	75
f 76 	75 	95
f 97 	98 	91
f 22 	98 	25
f 76 	95 	96
f 81 	76 	96
f 101 	737 	80
f 105 	102 	100
f 103 	21 	27
f 100 	101 	105
f 106 	103 	27
f 80 	105 	101
f 101 	100 	99
f 102 	96 	94
f 102 	105 	96
f 80 	81 	105
f 103 	108 	104
f 104 	108 	233
f 81 	96 	105
f 103 	106 	108
f 110 	108 	106
f 107 	110 	106
f 188 	112 	109
f 113 	111 	109
f 112 	113 	109
f 112 	184 	113
f 113 	9 	111
f 114 	89 	118
f 89 	87 	118
f 116 	137 	119
f 86 	93 	114
f 89 	114 	93
f 107 	682 	115
f 115 	118 	120
f 322 	323 	120
f 118 	115 	114
f 110 	107 	120
f 107 	115 	120
f 120 	118 	322
f 124 	126 	123
f 221 	125 	224
f 123 	10 	122
f 123 	126 	10
f 15 	10 	126
f 126 	193 	15
f 133 	129 	127
f 133 	132 	129
f 133 	127 	136
f 128 	135 	134
f 135 	754 	134
f 754 	751 	134
f 128 	131 	135
f 138 	130 	119
f 138 	131 	130
f 119 	137 	138
f 193 	141 	129
f 135 	131 	139
f 131 	138 	139
f 140 	139 	138
f 133 	136 	879
f 140 	138 	137
f 141 	127 	129
f 377 	378 	144
f 146 	137 	116
f 150 	140 	137
f 137 	146 	150
f 147 	810 	149
f 152 	150 	146
f 140 	150 	155
f 157 	150 	152
f 152 	146 	145
f 151 	152 	145
f 148 	149 	154
f 154 	950 	156
f 155 	150 	157
f 149 	148 	147
f 154 	156 	153
f 153 	148 	154
f 156 	950 	951
f 162 	446 	158
f 166 	162 	158
f 159 	166 	158
f 161 	166 	159
f 169 	167 	164
f 147 	148 	161
f 169 	164 	165
f 153 	439 	162
f 175 	167 	169
f 153 	162 	166
f 153 	166 	148
f 168 	169 	165
f 148 	166 	161
f 172 	167 	175
f 61 	59 	58
f 61 	839 	62
f 62 	59 	61
f 165 	170 	658
f 178 	889 	32
f 184 	112 	121
f 181 	121 	117
f 181 	117 	119
f 184 	181 	1
f 119 	117 	116
f 121 	181 	184
f 130 	1 	181
f 119 	130 	181
f 11 	9 	113
f 11 	113 	184
f 1 	11 	184
f 186 	183 	182
f 186 	185 	183
f 157 	187 	155
f 187 	188 	155
f 205 	186 	182
f 205 	192 	186
f 190 	196 	187
f 192 	197 	186
f 193 	696 	195
f 129 	696 	193
f 15 	195 	19
f 196 	188 	187
f 195 	15 	193
f 197 	185 	186
f 198 	196 	190
f 198 	121 	196
f 191 	198 	190
f 185 	197 	199
f 194 	198 	191
f 194 	191 	189
f 116 	117 	194
f 117 	198 	194
f 196 	112 	188
f 196 	121 	112
f 127 	141 	201
f 141 	124 	201
f 198 	117 	121
f 136 	127 	200
f 201 	200 	127
f 141 	126 	124
f 141 	193 	126
f 99 	100 	202
f 99 	202 	338
f 94 	90 	330
f 178 	32 	35
f 206 	891 	178
f 206 	176 	891
f 178 	35 	206
f 35 	209 	206
f 211 	208 	207
f 288 	65 	211
f 209 	215 	206
f 216 	215 	209
f 264 	212 	424
f 210 	216 	209
f 216 	210 	213
f 225 	212 	208
f 214 	212 	264
f 176 	206 	215
f 207 	212 	214
f 207 	208 	212
f 220 	207 	214
f 214 	218 	220
f 125 	221 	601
f 219 	601 	221
f 227 	259 	217
f 222 	218 	217
f 222 	220 	218
f 223 	326 	87
f 212 	225 	424
f 452 	428 	225
f 226 	219 	221
f 226 	763 	219
f 226 	221 	229
f 221 	224 	229
f 159 	171 	161
f 171 	173 	161
f 147 	161 	173
f 173 	171 	170
f 228 	180 	179
f 816 	224 	223
f 816 	229 	224
f 179 	277 	228
f 322 	87 	326
f 231 	226 	229
f 231 	986 	226
f 229 	104 	231
f 104 	233 	231
f 179 	180 	230
f 234 	233 	108
f 179 	230 	232
f 319 	317 	233
f 228 	277 	952
f 110 	234 	108
f 216 	213 	245
f 54 	237 	238
f 232 	236 	240
f 232 	240 	179
f 42 	237 	54
f 240 	277 	179
f 241 	236 	235
f 241 	240 	236
f 42 	44 	237
f 242 	239 	237
f 277 	240 	276
f 44 	242 	237
f 210 	37 	238
f 54 	238 	37
f 239 	213 	238
f 244 	377 	246
f 895 	213 	239
f 239 	238 	237
f 213 	210 	238
f 895 	245 	213
f 215 	177 	176
f 247 	177 	215
f 216 	247 	215
f 245 	247 	216
f 249 	246 	243
f 898 	923 	247
f 232 	230 	244
f 177 	247 	923
f 898 	247 	245
f 232 	244 	246
f 249 	236 	246
f 250 	208 	211
f 232 	246 	236
f 208 	250 	452
f 249 	248 	235
f 235 	236 	249
f 252 	250 	211
f 252 	211 	65
f 65 	253 	252
f 254 	230 	180
f 394 	254 	180
f 459 	253 	66
f 258 	235 	248
f 145 	146 	299
f 426 	235 	258
f 258 	248 	256
f 151 	145 	423
f 422 	258 	256
f 217 	259 	222
f 260 	85 	82
f 260 	74 	85
f 39 	82 	60
f 259 	227 	261
f 85 	960 	262
f 39 	260 	82
f 17 	74 	260
f 6 	83 	30
f 83 	262 	30
f 259 	261 	304
f 6 	63 	83
f 83 	85 	262
f 85 	83 	82
f 262 	34 	30
f 263 	266 	458
f 458 	266 	264
f 265 	269 	79
f 270 	266 	263
f 267 	79 	269
f 265 	53 	68
f 265 	68 	269
f 214 	264 	266
f 214 	266 	218
f 68 	271 	269
f 270 	218 	266
f 68 	71 	271
f 272 	267 	269
f 272 	269 	271
f 271 	632 	272
f 270 	268 	217
f 217 	218 	270
f 272 	963 	267
f 272 	996 	963
f 276 	240 	241
f 203 	94 	330
f 102 	94 	203
f 203 	204 	102
f 283 	279 	280
f 204 	100 	102
f 100 	204 	202
f 282 	277 	276
f 279 	282 	276
f 279 	283 	282
f 684 	284 	281
f 952 	277 	282
f 621 	190 	187
f 191 	190 	281
f 284 	191 	281
f 284 	189 	191
f 284 	449 	189
f 293 	280 	286
f 287 	220 	222
f 288 	207 	220
f 288 	211 	207
f 288 	220 	287
f 285 	248 	289
f 249 	243 	289
f 248 	249 	289
f 305 	290 	287
f 293 	289 	243
f 287 	292 	288
f 286 	289 	293
f 290 	292 	287
f 290 	294 	292
f 289 	286 	285
f 291 	294 	290
f 280 	293 	283
f 144 	143 	283
f 293 	144 	283
f 288 	292 	65
f 66 	65 	292
f 66 	292 	294
f 64 	66 	294
f 279 	276 	296
f 300 	296 	295
f 298 	300 	295
f 297 	145 	299
f 146 	116 	299
f 297 	420 	423
f 279 	296 	300
f 300 	280 	279
f 423 	145 	297
f 189 	299 	194
f 299 	189 	297
f 116 	194 	299
f 305 	287 	222
f 305 	222 	259
f 303 	256 	285
f 256 	248 	285
f 301 	255 	303
f 259 	304 	305
f 255 	256 	303
f 304 	306 	308
f 309 	308 	306
f 304 	308 	305
f 291 	290 	308
f 310 	302 	303
f 291 	308 	309
f 310 	307 	302
f 305 	308 	290
f 303 	302 	301
f 298 	311 	300
f 298 	307 	311
f 307 	310 	311
f 285 	286 	310
f 285 	310 	303
f 311 	280 	300
f 286 	280 	311
f 286 	311 	310
f 312 	268 	314
f 231 	317 	986
f 317 	231 	233
f 171 	318 	315
f 233 	234 	319
f 170 	171 	315
f 170 	315 	655
f 159 	158 	316
f 159 	316 	318
f 318 	171 	159
f 325 	371 	323
f 371 	234 	323
f 322 	325 	323
f 302 	307 	324
f 301 	302 	320
f 301 	320 	855
f 118 	87 	322
f 326 	325 	322
f 307 	298 	321
f 326 	125 	325
f 324 	307 	321
f 324 	320 	302
f 163 	333 	174
f 331 	203 	330
f 748 	329 	327
f 805 	748 	327
f 160 	174 	331
f 330 	160 	331
f 174 	333 	331
f 328 	334 	332
f 328 	329 	334
f 334 	329 	341
f 329 	328 	327
f 335 	331 	333
f 640 	332 	334
f 331 	335 	203
f 204 	203 	335
f 339 	340 	338
f 347 	342 	341
f 342 	347 	343
f 345 	340 	339
f 346 	341 	329
f 344 	345 	339
f 346 	347 	341
f 163 	174 	345
f 163 	345 	344
f 349 	339 	338
f 334 	341 	350
f 351 	349 	348
f 351 	339 	349
f 344 	339 	351
f 350 	649 	640
f 342 	352 	350
f 494 	344 	351
f 342 	468 	352
f 341 	342 	350
f 353 	349 	338
f 202 	204 	354
f 208 	452 	225
f 357 	251 	250
f 360 	356 	355
f 252 	357 	250
f 252 	358 	357
f 359 	479 	356
f 202 	354 	353
f 356 	360 	359
f 338 	202 	353
f 394 	337 	355
f 204 	335 	354
f 337 	360 	355
f 359 	360 	364
f 364 	360 	363
f 364 	486 	359
f 363 	360 	337
f 349 	353 	362
f 348 	349 	362
f 358 	252 	253
f 253 	257 	358
f 336 	394 	180
f 228 	336 	180
f 366 	336 	228
f 358 	417 	357
f 367 	952 	143
f 224 	125 	326
f 223 	224 	326
f 110 	323 	234
f 230 	254 	388
f 110 	120 	323
f 372 	337 	336
f 371 	319 	234
f 366 	372 	336
f 372 	366 	373
f 367 	373 	366
f 373 	367 	370
f 395 	375 	374
f 395 	374 	376
f 144 	293 	243
f 243 	377 	144
f 383 	379 	995
f 379 	383 	381
f 243 	246 	377
f 377 	244 	380
f 244 	388 	380
f 244 	230 	388
f 143 	378 	367
f 378 	370 	367
f 378 	143 	144
f 378 	380 	370
f 467 	370 	380
f 380 	378 	377
f 393 	381 	385
f 374 	393 	385
f 372 	363 	337
f 386 	363 	372
f 373 	386 	372
f 384 	386 	373
f 387 	385 	381
f 376 	374 	385
f 373 	370 	384
f 687 	383 	382
f 387 	381 	383
f 687 	387 	383
f 381 	390 	379
f 393 	391 	390
f 393 	519 	391
f 254 	389 	388
f 254 	392 	389
f 390 	381 	393
f 392 	254 	394
f 374 	519 	393
f 355 	431 	392
f 355 	356 	431
f 392 	394 	355
f 395 	396 	375
f 394 	336 	337
f 397 	398 	384
f 399 	395 	376
f 400 	396 	395
f 399 	400 	395
f 404 	274 	278
f 278 	402 	438
f 438 	404 	278
f 401 	437 	402
f 390 	391 	405
f 438 	402 	437
f 408 	369 	368
f 643 	642 	407
f 408 	406 	369
f 408 	368 	251
f 664 	406 	412
f 452 	250 	251
f 411 	408 	251
f 414 	410 	409
f 357 	411 	251
f 408 	412 	406
f 411 	412 	408
f 227 	217 	268
f 227 	268 	410
f 227 	410 	414
f 413 	414 	409
f 227 	414 	261
f 257 	415 	416
f 416 	358 	257
f 513 	414 	413
f 571 	409 	441
f 401 	172 	447
f 411 	357 	417
f 358 	416 	417
f 454 	417 	416
f 453 	454 	416
f 453 	416 	415
f 422 	256 	255
f 411 	417 	457
f 419 	427 	420
f 421 	422 	255
f 420 	427 	423
f 425 	453 	415
f 235 	426 	241
f 424 	425 	415
f 296 	276 	241
f 430 	426 	258
f 432 	427 	419
f 397 	389 	429
f 296 	241 	426
f 430 	258 	422
f 389 	392 	429
f 432 	419 	418
f 392 	431 	429
f 275 	433 	273
f 49 	431 	356
f 511 	419 	420
f 363 	434 	364
f 295 	296 	426
f 430 	422 	848
f 426 	430 	295
f 363 	386 	434
f 398 	434 	386
f 270 	263 	314
f 268 	270 	314
f 436 	314 	263
f 857 	301 	855
f 410 	268 	312
f 255 	301 	857
f 313 	291 	309
f 424 	225 	425
f 225 	428 	425
f 313 	314 	436
f 313 	436 	291
f 314 	313 	312
f 436 	294 	291
f 64 	294 	436
f 70 	438 	440
f 447 	437 	401
f 440 	438 	437
f 439 	440 	437
f 439 	156 	440
f 951 	70 	440
f 951 	440 	156
f 156 	439 	153
f 441 	442 	448
f 443 	410 	312
f 441 	409 	443
f 409 	410 	443
f 445 	443 	312
f 445 	309 	444
f 444 	442 	445
f 443 	445 	442
f 312 	313 	445
f 443 	442 	441
f 309 	306 	444
f 313 	309 	445
f 446 	172 	175
f 446 	447 	172
f 439 	437 	447
f 446 	162 	447
f 447 	162 	439
f 297 	189 	449
f 297 	449 	420
f 441 	448 	568
f 450 	444 	306
f 450 	451 	444
f 442 	444 	451
f 368 	369 	456
f 368 	456 	428
f 452 	368 	428
f 251 	368 	452
f 455 	674 	667
f 455 	667 	453
f 425 	455 	453
f 425 	428 	455
f 428 	456 	455
f 369 	97 	456
f 457 	412 	411
f 417 	454 	457
f 667 	668 	454
f 667 	454 	453
f 675 	412 	457
f 457 	454 	668
f 436 	263 	64
f 458 	459 	64
f 257 	253 	459
f 66 	64 	459
f 64 	263 	458
f 264 	460 	458
f 264 	424 	460
f 460 	257 	459
f 460 	459 	458
f 70 	404 	438
f 274 	461 	643
f 442 	451 	448
f 461 	462 	643
f 274 	404 	461
f 398 	386 	384
f 404 	465 	461
f 467 	384 	370
f 397 	384 	467
f 466 	361 	362
f 397 	467 	389
f 380 	388 	467
f 353 	466 	362
f 388 	389 	467
f 365 	335 	333
f 365 	354 	335
f 352 	468 	469
f 466 	354 	365
f 466 	353 	354
f 472 	163 	470
f 995 	994 	471
f 472 	333 	163
f 343 	468 	342
f 473 	471 	468
f 475 	433 	275
f 475 	435 	433
f 468 	343 	473
f 474 	475 	275
f 598 	477 	52
f 477 	55 	52
f 435 	475 	478
f 471 	476 	469
f 435 	478 	477
f 471 	469 	468
f 564 	475 	474
f 476 	693 	469
f 479 	482 	1003
f 556 	55 	477
f 356 	479 	49
f 472 	470 	506
f 365 	333 	472
f 480 	1003 	482
f 359 	482 	479
f 486 	482 	359
f 175 	169 	487
f 497 	486 	364
f 487 	169 	168
f 364 	434 	497
f 482 	488 	480
f 490 	487 	168
f 486 	488 	482
f 501 	488 	486
f 605 	485 	484
f 489 	480 	488
f 488 	558 	489
f 490 	168 	485
f 487 	600 	175
f 490 	485 	605
f 489 	5 	1011
f 348 	483 	351
f 491 	492 	398
f 697 	481 	483
f 398 	397 	491
f 496 	483 	481
f 38 	493 	43
f 483 	494 	351
f 483 	496 	494
f 397 	429 	491
f 495 	493 	491
f 495 	43 	493
f 49 	43 	495
f 495 	491 	429
f 500 	470 	494
f 481 	498 	496
f 495 	429 	431
f 431 	49 	495
f 470 	163 	344
f 494 	496 	500
f 470 	344 	494
f 479 	50 	49
f 492 	497 	434
f 492 	434 	398
f 698 	1002 	498
f 493 	499 	492
f 493 	38 	499
f 493 	492 	491
f 486 	497 	501
f 499 	501 	497
f 502 	496 	498
f 502 	500 	496
f 558 	488 	501
f 502 	504 	500
f 497 	492 	499
f 403 	507 	503
f 506 	470 	500
f 405 	507 	403
f 500 	504 	506
f 508 	506 	504
f 18 	508 	504
f 509 	400 	399
f 503 	509 	399
f 18 	510 	508
f 532 	432 	418
f 503 	507 	509
f 420 	449 	511
f 513 	261 	414
f 518 	261 	513
f 513 	413 	516
f 517 	512 	520
f 522 	514 	517
f 518 	304 	261
f 521 	450 	518
f 306 	304 	518
f 306 	518 	450
f 513 	516 	521
f 521 	518 	513
f 515 	523 	516
f 523 	521 	516
f 523 	550 	527
f 524 	521 	523
f 524 	523 	527
f 524 	450 	521
f 451 	450 	524
f 526 	517 	520
f 585 	451 	524
f 375 	520 	519
f 526 	520 	375
f 419 	511 	525
f 418 	419 	525
f 375 	519 	374
f 522 	517 	526
f 522 	531 	529
f 585 	524 	527
f 526 	375 	396
f 531 	522 	526
f 532 	418 	530
f 526 	396 	531
f 534 	532 	530
f 533 	531 	396
f 396 	400 	533
f 400 	594 	533
f 529 	531 	535
f 534 	554 	544
f 532 	534 	546
f 535 	531 	533
f 536 	464 	463
f 537 	538 	507
f 509 	507 	538
f 507 	405 	537
f 543 	551 	539
f 545 	539 	541
f 553 	543 	549
f 543 	539 	545
f 702 	432 	532
f 612 	432 	702
f 543 	545 	549
f 702 	532 	546
f 546 	786 	702
f 541 	540 	464
f 541 	464 	545
f 785 	786 	546
f 464 	540 	463
f 547 	534 	544
f 464 	548 	545
f 547 	546 	534
f 464 	536 	548
f 546 	547 	785
f 548 	549 	545
f 759 	549 	548
f 515 	550 	523
f 552 	551 	543
f 552 	543 	553
f 530 	555 	554
f 557 	499 	38
f 528 	544 	554
f 557 	558 	501
f 530 	563 	555
f 534 	530 	554
f 557 	501 	499
f 56 	57 	557
f 38 	56 	557
f 5 	489 	558
f 557 	57 	558
f 574 	562 	275
f 562 	474 	275
f 418 	525 	563
f 563 	530 	418
f 478 	475 	564
f 478 	564 	565
f 555 	563 	559
f 812 	550 	566
f 565 	567 	578
f 582 	570 	568
f 580 	579 	569
f 441 	568 	571
f 570 	571 	568
f 560 	474 	562
f 565 	564 	567
f 567 	474 	569
f 413 	409 	571
f 572 	573 	474
f 572 	474 	560
f 573 	581 	569
f 572 	581 	573
f 560 	562 	561
f 580 	569 	581
f 575 	560 	574
f 577 	571 	570
f 581 	572 	575
f 413 	571 	577
f 561 	574 	560
f 576 	577 	570
f 574 	275 	273
f 516 	413 	577
f 562 	574 	561
f 477 	478 	556
f 576 	515 	577
f 478 	565 	556
f 515 	516 	577
f 556 	565 	578
f 556 	578 	590
f 567 	579 	578
f 582 	583 	570
f 567 	569 	579
f 579 	580 	575
f 581 	575 	580
f 560 	575 	572
f 574 	273 	575
f 579 	591 	578
f 584 	582 	568
f 582 	586 	583
f 576 	570 	583
f 774 	576 	583
f 582 	584 	589
f 586 	582 	589
f 592 	584 	585
f 568 	448 	584
f 448 	451 	585
f 585 	584 	448
f 602 	583 	586
f 578 	591 	590
f 579 	588 	591
f 405 	391 	537
f 588 	579 	575
f 593 	542 	537
f 593 	512 	542
f 589 	592 	587
f 584 	592 	589
f 593 	537 	391
f 587 	809 	589
f 593 	520 	512
f 391 	519 	593
f 573 	569 	474
f 519 	520 	593
f 567 	564 	474
f 400 	509 	594
f 538 	594 	509
f 595 	603 	433
f 542 	597 	538
f 433 	435 	595
f 598 	596 	595
f 598 	619 	596
f 52 	53 	619
f 435 	598 	595
f 598 	52 	619
f 542 	538 	537
f 533 	599 	535
f 477 	598 	435
f 599 	533 	594
f 597 	599 	594
f 600 	446 	175
f 538 	597 	594
f 158 	446 	600
f 600 	316 	158
f 938 	944 	599
f 599 	597 	938
f 585 	527 	592
f 602 	774 	583
f 588 	575 	273
f 55 	556 	590
f 603 	604 	588
f 316 	600 	636
f 603 	588 	273
f 595 	606 	603
f 505 	510 	19
f 596 	606 	595
f 607 	510 	505
f 433 	603 	273
f 195 	505 	19
f 348 	362 	607
f 362 	361 	607
f 55 	590 	69
f 609 	472 	506
f 365 	472 	609
f 508 	609 	506
f 608 	591 	604
f 361 	609 	508
f 609 	361 	466
f 508 	510 	361
f 606 	610 	604
f 510 	607 	361
f 610 	624 	625
f 606 	604 	603
f 609 	466 	365
f 69 	611 	71
f 610 	611 	608
f 151 	423 	613
f 610 	625 	611
f 608 	604 	610
f 612 	427 	432
f 610 	606 	624
f 423 	427 	613
f 617 	151 	613
f 613 	427 	612
f 615 	157 	152
f 615 	152 	151
f 615 	151 	617
f 612 	678 	613
f 79 	616 	618
f 678 	617 	613
f 621 	187 	157
f 614 	629 	620
f 549 	62 	553
f 618 	614 	620
f 759 	62 	549
f 265 	618 	620
f 553 	551 	552
f 265 	79 	618
f 619 	53 	620
f 53 	265 	620
f 463 	540 	707
f 623 	704 	3
f 622 	626 	4
f 624 	606 	596
f 629 	627 	624
f 629 	614 	627
f 596 	629 	624
f 619 	629 	596
f 620 	629 	619
f 630 	271 	71
f 611 	630 	71
f 611 	625 	630
f 625 	627 	631
f 627 	625 	624
f 630 	632 	271
f 632 	630 	631
f 630 	625 	631
f 636 	487 	490
f 636 	600 	487
f 637 	634 	633
f 637 	635 	634
f 635 	637 	825
f 605 	638 	490
f 636 	490 	638
f 70 	465 	404
f 70 	332 	465
f 640 	639 	465
f 274 	643 	407
f 461 	639 	462
f 639 	461 	465
f 536 	463 	623
f 640 	465 	332
f 623 	641 	536
f 626 	641 	623
f 628 	641 	626
f 639 	640 	649
f 334 	350 	640
f 628 	626 	622
f 415 	257 	460
f 460 	424 	415
f 642 	343 	347
f 641 	750 	536
f 643 	644 	642
f 643 	462 	644
f 645 	644 	462
f 646 	636 	638
f 346 	407 	347
f 407 	642 	347
f 645 	462 	648
f 462 	639 	648
f 649 	648 	639
f 646 	316 	636
f 316 	646 	318
f 648 	656 	645
f 649 	352 	657
f 350 	352 	649
f 650 	473 	343
f 650 	343 	642
f 644 	650 	642
f 647 	318 	646
f 382 	650 	651
f 651 	687 	382
f 315 	318 	647
f 653 	687 	651
f 650 	644 	651
f 651 	644 	645
f 645 	653 	651
f 645 	656 	653
f 654 	659 	655
f 657 	656 	648
f 170 	655 	658
f 648 	649 	657
f 659 	658 	655
f 693 	656 	657
f 469 	693 	657
f 657 	352 	469
f 660 	98 	97
f 168 	165 	658
f 660 	25 	98
f 25 	663 	661
f 369 	660 	97
f 661 	23 	25
f 661 	27 	23
f 369 	406 	660
f 662 	654 	652
f 25 	660 	663
f 662 	659 	654
f 660 	406 	663
f 663 	406 	664
f 485 	168 	658
f 484 	659 	662
f 412 	675 	664
f 485 	658 	659
f 485 	659 	484
f 661 	663 	665
f 670 	654 	666
f 665 	663 	664
f 666 	673 	670
f 647 	666 	315
f 666 	647 	673
f 655 	315 	666
f 654 	655 	666
f 86 	671 	91
f 652 	654 	670
f 674 	671 	667
f 674 	91 	671
f 672 	646 	638
f 97 	91 	674
f 670 	673 	669
f 676 	671 	86
f 456 	674 	455
f 669 	846 	670
f 456 	97 	674
f 647 	646 	672
f 647 	672 	673
f 157 	615 	621
f 457 	668 	675
f 671 	676 	668
f 617 	678 	683
f 671 	668 	667
f 664 	677 	665
f 677 	682 	665
f 190 	621 	281
f 681 	617 	683
f 664 	675 	677
f 675 	676 	677
f 681 	621 	615
f 675 	668 	676
f 681 	615 	617
f 281 	621 	681
f 677 	676 	679
f 677 	679 	682
f 679 	676 	86
f 680 	27 	661
f 665 	680 	661
f 665 	682 	680
f 678 	788 	683
f 114 	115 	679
f 86 	114 	679
f 106 	27 	680
f 106 	680 	107
f 107 	680 	682
f 684 	681 	683
f 679 	115 	682
f 685 	385 	387
f 376 	385 	685
f 473 	650 	382
f 449 	686 	511
f 281 	681 	684
f 686 	284 	684
f 449 	284 	686
f 685 	387 	689
f 387 	687 	689
f 687 	653 	689
f 691 	689 	653
f 691 	694 	689
f 653 	656 	691
f 693 	691 	656
f 686 	690 	692
f 525 	692 	688
f 563 	525 	688
f 684 	683 	690
f 689 	694 	685
f 690 	686 	684
f 695 	694 	691
f 511 	686 	692
f 692 	525 	511
f 693 	695 	691
f 693 	476 	695
f 483 	348 	697
f 481 	697 	818
f 129 	132 	696
f 818 	696 	698
f 698 	481 	818
f 498 	481 	698
f 700 	376 	685
f 132 	698 	696
f 694 	700 	685
f 694 	701 	700
f 1002 	698 	132
f 695 	701 	694
f 699 	701 	695
f 403 	503 	701
f 699 	403 	701
f 703 	612 	702
f 699 	695 	476
f 678 	612 	703
f 399 	376 	700
f 399 	700 	503
f 700 	701 	503
f 705 	622 	2
f 622 	4 	2
f 712 	706 	707
f 705 	709 	708
f 725 	726 	705
f 73 	706 	722
f 707 	706 	704
f 463 	707 	704
f 73 	704 	706
f 73 	3 	704
f 704 	623 	463
f 622 	708 	628
f 708 	622 	705
f 712 	711 	709
f 711 	710 	708
f 711 	713 	710
f 714 	712 	709
f 714 	706 	712
f 708 	709 	711
f 719 	605 	484
f 719 	484 	716
f 706 	714 	722
f 714 	718 	722
f 721 	719 	716
f 724 	605 	719
f 718 	723 	722
f 721 	843 	719
f 723 	718 	717
f 724 	638 	605
f 672 	638 	724
f 722 	723 	72
f 72 	73 	722
f 634 	720 	740
f 727 	721 	720
f 726 	709 	705
f 843 	724 	719
f 84 	731 	725
f 634 	635 	720
f 726 	725 	731
f 635 	727 	720
f 705 	2 	725
f 84 	725 	88
f 709 	726 	714
f 733 	730 	743
f 652 	730 	732
f 732 	662 	652
f 733 	732 	730
f 84 	729 	731
f 726 	731 	718
f 718 	714 	726
f 717 	731 	729
f 718 	731 	717
f 725 	2 	88
f 732 	733 	738
f 735 	711 	712
f 735 	712 	707
f 729 	80 	737
f 716 	662 	732
f 484 	662 	716
f 716 	732 	738
f 736 	737 	101
f 737 	739 	729
f 717 	729 	739
f 740 	738 	733
f 716 	738 	721
f 720 	738 	740
f 745 	723 	717
f 742 	737 	736
f 720 	721 	738
f 740 	733 	734
f 737 	742 	739
f 717 	739 	745
f 736 	340 	741
f 741 	742 	736
f 739 	742 	747
f 739 	747 	745
f 734 	743 	728
f 72 	723 	92
f 730 	744 	743
f 340 	345 	741
f 590 	608 	69
f 735 	713 	711
f 92 	723 	745
f 735 	715 	713
f 608 	590 	591
f 591 	588 	604
f 741 	160 	742
f 746 	154 	149
f 327 	746 	805
f 160 	747 	742
f 540 	715 	735
f 90 	745 	747
f 748 	346 	329
f 90 	92 	745
f 540 	541 	715
f 747 	160 	330
f 735 	707 	540
f 174 	741 	345
f 628 	710 	749
f 330 	90 	747
f 174 	160 	741
f 340 	99 	338
f 708 	710 	628
f 736 	101 	99
f 536 	750 	548
f 736 	99 	340
f 749 	750 	641
f 134 	751 	142
f 749 	641 	628
f 750 	759 	548
f 749 	752 	753
f 757 	135 	139
f 752 	749 	710
f 135 	757 	754
f 61 	58 	756
f 713 	752 	710
f 755 	139 	140
f 756 	58 	752
f 752 	713 	756
f 61 	756 	758
f 715 	756 	713
f 756 	715 	758
f 715 	541 	758
f 541 	539 	758
f 219 	760 	601
f 760 	219 	762
f 183 	761 	182
f 762 	219 	763
f 761 	762 	182
f 762 	763 	182
f 763 	205 	182
f 986 	205 	763
f 764 	766 	765
f 767 	544 	528
f 764 	760 	766
f 767 	528 	766
f 760 	767 	766
f 760 	762 	767
f 768 	766 	528
f 760 	764 	601
f 765 	766 	768
f 767 	761 	544
f 547 	544 	761
f 547 	761 	183
f 761 	767 	762
f 772 	601 	764
f 769 	197 	192
f 902 	769 	192
f 902 	768 	769
f 768 	528 	770
f 554 	555 	770
f 528 	554 	770
f 197 	771 	199
f 197 	769 	771
f 769 	770 	771
f 770 	769 	768
f 199 	771 	559
f 555 	559 	771
f 555 	771 	770
f 371 	772 	773
f 371 	325 	772
f 764 	773 	772
f 753 	759 	750
f 753 	750 	749
f 778 	576 	774
f 58 	59 	753
f 58 	753 	752
f 59 	62 	759
f 775 	774 	602
f 759 	753 	59
f 515 	576 	778
f 775 	784 	774
f 550 	515 	778
f 784 	778 	774
f 787 	784 	775
f 786 	703 	702
f 566 	550 	778
f 784 	566 	778
f 787 	775 	780
f 678 	703 	788
f 690 	683 	788
f 566 	784 	789
f 789 	784 	787
f 586 	791 	602
f 734 	792 	740
f 793 	602 	791
f 782 	12 	783
f 775 	602 	793
f 12 	794 	783
f 633 	792 	794
f 780 	775 	793
f 795 	780 	793
f 776 	798 	777
f 798 	776 	779
f 779 	799 	798
f 796 	930 	790
f 791 	797 	796
f 795 	796 	790
f 809 	797 	791
f 793 	791 	796
f 1 	800 	801
f 586 	809 	791
f 795 	793 	796
f 801 	11 	1
f 789 	802 	566
f 547 	183 	785
f 746 	149 	811
f 703 	786 	819
f 74 	13 	782
f 811 	805 	746
f 346 	748 	807
f 13 	12 	782
f 633 	634 	792
f 794 	12 	806
f 794 	806 	633
f 746 	950 	154
f 20 	26 	806
f 807 	407 	346
f 807 	748 	808
f 407 	807 	274
f 802 	804 	587
f 748 	805 	808
f 808 	805 	813
f 807 	808 	278
f 278 	274 	807
f 809 	587 	804
f 586 	589 	809
f 149 	810 	811
f 811 	813 	805
f 802 	812 	566
f 802 	587 	812
f 592 	812 	587
f 402 	278 	808
f 402 	808 	813
f 814 	811 	810
f 814 	813 	811
f 167 	814 	810
f 814 	401 	813
f 401 	402 	813
f 172 	814 	167
f 172 	401 	814
f 165 	173 	170
f 164 	147 	173
f 164 	810 	147
f 165 	164 	173
f 167 	810 	164
f 797 	809 	804
f 550 	812 	527
f 592 	527 	812
f 22 	89 	93
f 815 	87 	89
f 815 	223 	87
f 815 	89 	22
f 223 	815 	21
f 816 	223 	21
f 229 	816 	104
f 21 	103 	816
f 103 	104 	816
f 23 	815 	22
f 21 	815 	23
f 703 	819 	788
f 183 	185 	785
f 817 	786 	785
f 817 	785 	185
f 199 	817 	185
f 195 	818 	505
f 195 	696 	818
f 697 	505 	818
f 505 	697 	607
f 697 	348 	607
f 690 	788 	838
f 786 	817 	819
f 820 	819 	817
f 817 	199 	820
f 823 	728 	822
f 823 	734 	728
f 783 	823 	822
f 783 	794 	823
f 911 	821 	824
f 821 	822 	824
f 792 	734 	823
f 792 	823 	794
f 792 	634 	740
f 728 	824 	822
f 637 	781 	825
f 781 	826 	825
f 826 	829 	825
f 827 	829 	826
f 827 	826 	824
f 824 	728 	827
f 743 	744 	827
f 728 	743 	827
f 828 	727 	635
f 825 	828 	635
f 825 	829 	828
f 46 	41 	803
f 128 	46 	803
f 128 	803 	800
f 9 	830 	779
f 830 	9 	11
f 11 	801 	830
f 801 	803 	831
f 801 	831 	830
f 41 	51 	831
f 803 	41 	831
f 803 	801 	800
f 134 	142 	46
f 799 	779 	830
f 830 	831 	799
f 51 	799 	831
f 142 	47 	46
f 832 	47 	142
f 833 	832 	142
f 834 	31 	832
f 32 	31 	834
f 832 	833 	834
f 32 	834 	835
f 833 	777 	834
f 833 	142 	751
f 776 	833 	751
f 834 	777 	835
f 36 	35 	835
f 777 	833 	776
f 777 	836 	835
f 798 	836 	777
f 836 	798 	837
f 798 	799 	837
f 799 	51 	837
f 36 	835 	836
f 37 	36 	836
f 37 	836 	837
f 54 	37 	837
f 54 	837 	51
f 242 	44 	31
f 820 	199 	559
f 838 	788 	819
f 820 	838 	819
f 688 	838 	820
f 692 	838 	688
f 559 	688 	820
f 563 	688 	559
f 838 	692 	690
f 839 	61 	758
f 758 	539 	839
f 539 	551 	839
f 553 	62 	839
f 551 	553 	839
f 875 	876 	840
f 875 	840 	842
f 733 	743 	734
f 727 	843 	721
f 844 	843 	727
f 727 	828 	844
f 829 	744 	845
f 829 	827 	744
f 730 	846 	744
f 652 	670 	846
f 846 	730 	652
f 847 	724 	843
f 844 	847 	843
f 844 	669 	847
f 673 	672 	847
f 847 	669 	673
f 845 	669 	844
f 845 	846 	669
f 845 	744 	846
f 672 	724 	847
f 848 	422 	421
f 850 	852 	848
f 430 	848 	851
f 851 	295 	430
f 298 	295 	851
f 852 	851 	848
f 321 	851 	852
f 298 	851 	321
f 853 	852 	850
f 849 	853 	850
f 852 	853 	854
f 852 	854 	321
f 324 	321 	854
f 324 	854 	863
f 856 	857 	855
f 421 	255 	857
f 857 	859 	421
f 859 	857 	856
f 858 	859 	856
f 849 	859 	858
f 850 	848 	421
f 850 	421 	859
f 859 	849 	850
f 860 	861 	856
f 862 	860 	855
f 860 	856 	855
f 858 	856 	861
f 855 	320 	862
f 320 	324 	863
f 863 	862 	320
f 860 	862 	865
f 865 	867 	864
f 862 	863 	867
f 865 	862 	867
f 866 	854 	853
f 854 	866 	863
f 866 	867 	863
f 868 	853 	849
f 866 	853 	868
f 870 	858 	861
f 870 	861 	869
f 872 	870 	869
f 872 	959 	870
f 849 	858 	873
f 873 	868 	849
f 873 	858 	870
f 874 	842 	841
f 842 	874 	875
f 874 	841 	176
f 176 	177 	874
f 875 	878 	876
f 877 	875 	874
f 877 	878 	875
f 874 	177 	877
f 879 	880 	1004
f 880 	934 	881
f 880 	882 	1004
f 882 	122 	1004
f 882 	123 	122
f 840 	876 	881
f 883 	882 	880
f 883 	885 	882
f 881 	883 	880
f 883 	881 	876
f 884 	883 	876
f 876 	878 	884
f 981 	884 	878
f 885 	883 	884
f 884 	985 	885
f 885 	123 	882
f 124 	123 	885
f 890 	887 	886
f 888 	887 	890
f 242 	886 	239
f 892 	887 	888
f 889 	886 	242
f 889 	890 	886
f 841 	888 	891
f 31 	889 	242
f 891 	888 	890
f 889 	178 	890
f 178 	891 	890
f 32 	889 	31
f 891 	176 	841
f 894 	893 	892
f 894 	935 	893
f 892 	888 	894
f 935 	894 	842
f 840 	935 	842
f 894 	888 	841
f 842 	894 	841
f 755 	757 	139
f 896 	751 	754
f 886 	895 	239
f 776 	751 	896
f 886 	887 	895
f 896 	779 	776
f 109 	757 	755
f 897 	898 	245
f 896 	9 	779
f 140 	155 	755
f 895 	897 	245
f 325 	125 	772
f 111 	754 	757
f 125 	601 	772
f 896 	754 	111
f 757 	109 	111
f 317 	901 	900
f 188 	755 	155
f 896 	111 	9
f 319 	901 	317
f 188 	109 	755
f 901 	319 	773
f 800 	1 	130
f 773 	319 	371
f 773 	764 	765
f 131 	800 	130
f 131 	128 	800
f 205 	900 	192
f 46 	128 	134
f 192 	900 	902
f 845 	844 	828
f 900 	901 	902
f 829 	845 	828
f 765 	902 	901
f 904 	633 	806
f 768 	902 	765
f 904 	637 	633
f 765 	901 	773
f 806 	26 	904
f 26 	905 	904
f 904 	781 	637
f 903 	821 	906
f 910 	908 	907
f 908 	910 	913
f 514 	909 	907
f 781 	904 	905
f 909 	910 	907
f 905 	911 	781
f 911 	905 	906
f 522 	909 	514
f 906 	821 	911
f 522 	529 	909
f 940 	910 	909
f 826 	781 	911
f 911 	824 	826
f 529 	940 	909
f 912 	821 	903
f 912 	903 	960
f 780 	913 	787
f 912 	783 	822
f 915 	789 	787
f 910 	914 	913
f 915 	787 	913
f 914 	915 	913
f 915 	914 	928
f 916 	928 	914
f 780 	795 	908
f 913 	780 	908
f 929 	928 	916
f 790 	918 	919
f 919 	795 	790
f 920 	918 	917
f 920 	919 	918
f 920 	917 	921
f 924 	918 	927
f 918 	924 	917
f 783 	912 	782
f 822 	821 	912
f 85 	74 	960
f 782 	960 	74
f 907 	919 	920
f 892 	899 	897
f 908 	795 	919
f 893 	899 	892
f 908 	919 	907
f 895 	887 	897
f 920 	921 	514
f 514 	907 	920
f 517 	921 	512
f 887 	892 	897
f 517 	514 	921
f 923 	877 	177
f 898 	925 	923
f 925 	898 	899
f 899 	898 	897
f 926 	878 	877
f 923 	926 	877
f 923 	925 	926
f 926 	925 	957
f 927 	790 	930
f 931 	136 	200
f 796 	797 	930
f 930 	797 	933
f 918 	790 	927
f 932 	789 	915
f 928 	932 	915
f 928 	933 	932
f 934 	136 	931
f 934 	879 	136
f 934 	880 	879
f 933 	928 	929
f 930 	933 	929
f 980 	936 	931
f 930 	929 	927
f 936 	934 	931
f 802 	789 	932
f 936 	881 	934
f 802 	932 	804
f 804 	932 	933
f 933 	797 	804
f 936 	935 	840
f 840 	881 	936
f 937 	938 	597
f 937 	597 	542
f 942 	939 	922
f 937 	921 	917
f 542 	512 	937
f 938 	937 	917
f 512 	921 	937
f 940 	914 	910
f 941 	922 	616
f 529 	943 	940
f 916 	940 	943
f 941 	942 	922
f 529 	535 	943
f 943 	535 	944
f 79 	941 	616
f 535 	599 	944
f 962 	947 	942
f 79 	267 	941
f 962 	942 	941
f 938 	924 	944
f 917 	924 	938
f 916 	914 	940
f 946 	916 	943
f 944 	946 	943
f 942 	947 	945
f 924 	946 	944
f 947 	948 	945
f 929 	916 	946
f 927 	929 	946
f 924 	927 	946
f 947 	953 	948
f 945 	871 	939
f 945 	939 	942
f 327 	328 	950
f 327 	950 	746
f 947 	949 	953
f 332 	70 	951
f 954 	953 	949
f 332 	951 	328
f 328 	951 	950
f 143 	952 	282
f 366 	228 	952
f 367 	366 	952
f 283 	143 	282
f 958 	955 	953
f 958 	953 	954
f 949 	966 	954
f 873 	870 	959
f 955 	964 	948
f 763 	226 	986
f 955 	948 	953
f 956 	957 	925
f 961 	959 	872
f 955 	958 	969
f 960 	903 	262
f 961 	872 	871
f 782 	912 	960
f 871 	945 	961
f 959 	965 	873
f 262 	903 	34
f 868 	873 	965
f 941 	267 	962
f 945 	948 	961
f 964 	959 	961
f 267 	963 	962
f 964 	965 	959
f 947 	962 	949
f 948 	964 	961
f 949 	962 	963
f 949 	963 	966
f 964 	967 	965
f 955 	967 	964
f 955 	969 	967
f 972 	864 	969
f 975 	970 	971
f 973 	868 	965
f 866 	868 	973
f 973 	965 	967
f 864 	973 	967
f 867 	973 	864
f 974 	970 	968
f 974 	971 	970
f 969 	864 	967
f 865 	864 	972
f 974 	968 	984
f 867 	866 	973
f 925 	899 	956
f 931 	200 	977
f 979 	860 	865
f 978 	869 	979
f 861 	860 	979
f 956 	899 	893
f 869 	861 	979
f 982 	978 	976
f 980 	977 	956
f 972 	979 	865
f 980 	931 	977
f 979 	972 	978
f 893 	980 	956
f 869 	978 	982
f 935 	980 	893
f 936 	980 	935
f 988 	976 	975
f 981 	878 	926
f 981 	926 	957
f 872 	869 	982
f 982 	976 	988
f 983 	957 	977
f 968 	993 	992
f 977 	957 	956
f 984 	968 	992
f 981 	985 	884
f 981 	983 	985
f 201 	124 	985
f 922 	974 	616
f 981 	957 	983
f 200 	201 	983
f 200 	983 	977
f 992 	614 	984
f 885 	985 	124
f 974 	922 	971
f 985 	983 	201
f 939 	971 	922
f 974 	984 	616
f 900 	205 	986
f 618 	984 	614
f 317 	900 	986
f 616 	984 	618
f 968 	987 	993
f 988 	871 	982
f 987 	968 	970
f 978 	991 	976
f 989 	987 	970
f 989 	954 	966
f 975 	971 	988
f 989 	966 	987
f 871 	872 	982
f 988 	971 	939
f 989 	975 	990
f 939 	871 	988
f 990 	976 	991
f 975 	976 	990
f 989 	970 	975
f 954 	990 	958
f 990 	954 	989
f 991 	969 	958
f 972 	969 	991
f 631 	992 	993
f 990 	991 	958
f 632 	631 	993
f 991 	978 	972
f 992 	631 	627
f 627 	614 	992
f 379 	994 	995
f 272 	632 	996
f 993 	996 	632
f 473 	995 	471
f 993 	987 	996
f 473 	382 	995
f 382 	383 	995
f 476 	471 	994
f 966 	963 	996
f 996 	987 	966
f 997 	40 	48
f 999 	16 	997
f 998 	16 	999
f 1010 	24 	998
f 1000 	997 	48
f 999 	997 	1000
f 1000 	1005 	999
f 48 	1003 	1000
f 1001 	132 	133
f 132 	1001 	1002
f 1003 	48 	50
f 133 	879 	1001
f 1006 	1002 	1001
f 1002 	1008 	498
f 50 	479 	1003
f 1002 	1006 	1008
f 480 	1000 	1003
f 879 	1004 	1001
f 1004 	1006 	1001
f 480 	1005 	1000
f 122 	1006 	1004
f 122 	8 	1006
f 122 	10 	8
f 476 	994 	699
f 1007 	403 	699
f 405 	403 	1007
f 994 	1007 	699
f 994 	379 	1007
f 498 	1008 	502
f 390 	405 	1007
f 379 	390 	1007
f 489 	1005 	480
f 1009 	998 	999
f 1010 	28 	24
f 1008 	1006 	8
f 1010 	29 	28
f 7 	502 	1008
f 7 	504 	502
f 1009 	1010 	998
f 7 	18 	504
f 8 	7 	1008
f 7 	8 	14
f 1009 	999 	1005
f 1011 	1009 	1005
f 489 	1011 	1005
f 558 	57 	5
f 1012 	1010 	1009
f 29 	1010 	1012
f 1009 	1011 	1012
f 6 	1012 	1011
f 5 	6 	1011
# 2020 faces

 #end of obj_0

o obj_1
v 15.671 		-13.5 		0
v 15.671 		-13.5 		2
v 0.17 		-13.5 		2
v 0.17 		-13.5 		0
v 14.519 		-16.249 		2
v 16.053 		-25 		14.145
v 14.519 		-16.249 		14.0646
v 11.7794 		-15.5 		24.5692
v 7.2896 		-15.7353 		24.6999
v 10.1307 		-17.144 		24.6172
v 13.3991 		-17.144 		24.5221
v 12.2782 		-25 		13.9471
v 6.3822 		-24.249 		13.6379
v 14.519 		-24.249 		14.0646
v -2.3693 		-24.2324 		13.179
v 15.5121 		-15.5 		24.4606
v 13.3991 		-18.344 		24.5221
v 1.522 		-16.249 		2
v 10.1307 		-18.344 		24.6172
v 11.7794 		-15.5 		13.9209
v 14.519 		-24.249 		2
v 1.522 		-24.249 		2
v 10.1307 		-22.144 		24.6172
v 13.3991 		-22.144 		24.5221
v 1.522 		-16.249 		6.1594
v -2.3693 		-16.2415 		13.179
v 11.72 		-18.344 		26.3
v 16.053 		-15.5 		14.145
v -4.1586 		-16.3353 		17.6582
v 11.72 		-17.144 		26.3
v 1.522 		-24.249 		0
v -4.1586 		-24.1386 		17.6582
v 14.519 		-24.249 		0
v 7.2896 		-24.7386 		24.6999
v 1.522 		-24.249 		6.1594
v 15.5121 		-25 		24.4606
v 13.3991 		-23.344 		24.5221
v 10.1307 		-23.344 		24.6172
v 12.2782 		-25 		24.5547
v 6.3822 		-16.249 		13.6379
v 11.72 		-23.344 		26.3
v 14.519 		-16.249 		0
v 1.522 		-16.249 		0
v 11.72 		-22.144 		26.3
v 15.671 		-27 		2
v 15.671 		-27 		0
v 0.17 		-27 		0
v 0.17 		-27 		2
# 48 vertices

g group_1_16448250

usemtl color_16448250
s 0

f 1021 	1022 	1020
f 1022 	1023 	1020
f 1028 	1020 	1023
f 1027 	1025 	1024
f 1026 	1024 	1025
f 1014 	1013 	1016
f 1014 	1016 	1015
f 1028 	1032 	1020
f 1041 	1044 	1046
f 1031 	1035 	1029
f 1046 	1035 	1031
f 1035 	1036 	1029
f 1028 	1029 	1036
f 1039 	1031 	1029
f 1041 	1021 	1038
f 1032 	1038 	1021
f 1020 	1032 	1021
f 1060 	1057 	1034
f 1040 	1032 	1028
f 1043 	1045 	1058
f 1034 	1033 	1047
f 1025 	1047 	1033
f 1025 	1033 	1026
f 1022 	1042 	1023
f 1013 	1058 	1045
f 1029 	1028 	1023
f 1050 	1051 	1049
f 1046 	1051 	1050
f 1048 	1049 	1051
f 1042 	1039 	1029
f 1042 	1029 	1023
f 1021 	1041 	1046
f 1038 	1032 	1052
f 1046 	1031 	1021
f 1022 	1021 	1031
f 1024 	1051 	1046
f 1046 	1044 	1027
f 1024 	1046 	1027
f 1014 	1015 	1030
f 1014 	1030 	1017
f 1042 	1022 	1031
f 1042 	1031 	1039
f 1053 	1050 	1049
f 1035 	1056 	1036
f 1016 	1013 	1055
f 1054 	1055 	1013
f 1030 	1037 	1017
f 1037 	1052 	1017
f 1019 	1017 	1052
f 1014 	1057 	1058
f 1058 	1013 	1014
f 1016 	1059 	1060
f 1013 	1045 	1054
f 1033 	1034 	1057
f 1014 	1033 	1057
f 1059 	1043 	1058
f 1040 	1019 	1032
f 1052 	1032 	1019
f 1019 	1026 	1033
f 1052 	1037 	1047
f 1060 	1059 	1058
f 1060 	1058 	1057
f 1025 	1027 	1052
f 1043 	1059 	1016
f 1015 	1060 	1034
f 1024 	1018 	1048
f 1052 	1047 	1025
f 1055 	1054 	1043
f 1045 	1043 	1054
f 1048 	1051 	1024
f 1019 	1040 	1026
f 1016 	1055 	1043
f 1016 	1060 	1015
f 1028 	1048 	1040
f 1040 	1048 	1018
f 1044 	1041 	1027
f 1024 	1026 	1018
f 1038 	1027 	1041
f 1018 	1026 	1040
f 1049 	1048 	1036
f 1028 	1036 	1048
f 1056 	1053 	1049
f 1056 	1049 	1036
f 1033 	1014 	1017
f 1050 	1035 	1046
f 1033 	1017 	1019
f 1056 	1035 	1050
f 1056 	1050 	1053
f 1037 	1030 	1034
f 1037 	1034 	1047
f 1034 	1030 	1015
f 1052 	1027 	1038
# 92 faces

 #end of obj_1

